<!DOCTYPE svg PUBLIC "-//W3C//DTD SVG 1.1//EN" "http://www.w3.org/Graphics/SVG/1.1/DTD/svg11.dtd">
<!-- Uploaded to: SVG Repo, www.svgrepo.com, Transformed by: SVG Repo Mixer Tools -->
<svg fill="#ffffff" height="800px" width="800px" version="1.1" id="Layer_1" xmlns="http://www.w3.org/2000/svg" xmlns:xlink="http://www.w3.org/1999/xlink" viewBox="0 0 512 512" xml:space="preserve" stroke="#ffffff">
<g id="SVGRepo_bgCarrier" stroke-width="0"/>
<g id="SVGRepo_tracerCarrier" stroke-linecap="round" stroke-linejoin="round"/>
<g id="SVGRepo_iconCarrier"> <g> <g> <g> <path d="M343.101,209.399c0,32.162,26.167,58.327,58.327,58.327c32.162,0,58.327-26.167,58.327-58.327 c0-32.162-26.167-58.327-58.327-58.327C369.267,151.071,343.101,177.237,343.101,209.399z M401.429,166.948 c23.407,0,42.45,19.043,42.45,42.45s-19.043,42.45-42.45,42.45s-42.45-19.043-42.45-42.45S378.021,166.948,401.429,166.948z"/> <path d="M371.171,393.567h-79.914c-4.385,0-7.939,3.553-7.939,7.939c0,4.385,3.553,7.939,7.939,7.939h79.914 c4.385,0,7.939-3.553,7.939-7.939C379.11,397.121,375.556,393.567,371.171,393.567z"/> <path d="M499.786,451.175h-64.734c0.972-2.623,1.504-5.455,1.504-8.412c0-3.095-0.589-6.052-1.648-8.776 c24.69-2.939,43.901-23.991,43.901-49.459c0-27.474-22.351-49.825-49.825-49.825H286.716l-29.302-29.303 c-0.119-0.128-0.241-0.252-0.369-0.374c-5.387-5.1-12.438-7.909-19.858-7.909c-15.926,0-28.882,12.956-28.882,28.88v58.528 c0,27.473,22.351,49.822,49.825,49.822h21.18c-0.972,2.623-1.504,5.455-1.504,8.412c0,2.956,0.532,5.79,1.504,8.412H166.474 V243.404h6.723c9.855,0,18.551-7.658,19.797-17.436l10.412-81.765c0.638-5.014-0.851-9.994-4.084-13.665 c-2.959-3.361-7.197-5.388-11.768-5.71l0.473-4.698h183.529c5.981,0,9.389-2.411,11.193-4.435 c3.904-4.377,3.271-9.916,3.032-11.993c-4.271-37.664-36.115-66.065-74.073-66.065c-8.197,0-16.212,1.316-23.888,3.916 c-16.223-13.23-36.466-20.461-57.532-20.461c-19.878,0-38.768,6.288-54.626,18.188c-13.739,10.309-24.412,24.536-30.516,40.5 h-8.475c-3.319-9.806-12.603-16.886-23.515-16.886s-20.196,7.08-23.515,16.886H53.581c-5.015,0-9.772,2.081-13.052,5.708 s-4.873,8.569-4.369,13.558l2.597,25.781c-4.573,0.323-8.81,2.35-11.77,5.712c-3.233,3.671-4.721,8.652-4.08,13.664l10.41,81.765 c1.245,9.777,9.941,17.436,19.797,17.436h6.72v207.77h-47.62C5.48,451.175,0,456.656,0,463.391v15.302 c0,6.734,5.48,12.214,12.214,12.214h487.573c6.734,0,12.214-5.48,12.214-12.214v-15.302 C512,456.656,506.52,451.175,499.786,451.175z M416.104,363.148h39.224c3.153,3.878,5.464,8.464,6.665,13.477h-45.889 c-3.715,0-6.737-3.022-6.737-6.737C409.367,366.171,412.389,363.148,416.104,363.148z M224.184,326 c0-7.17,5.834-13.003,13.004-13.003c3.26,0,6.364,1.205,8.765,3.397l7.866,7.865c-11.889,5.279-21.855,12.039-29.635,18.419V326z M224.184,384.528v-20.367c8.011-8.195,22.383-20.542,41.792-27.746l11.839,11.839c0.386,0.386,0.81,0.726,1.26,1.021 c-7.789,4.44-14.963,9.887-21.493,16.334c-13.025,12.857-21.172,27.399-26.226,39.748 C226.867,399.602,224.184,392.375,224.184,384.528z M258.131,418.474c-4.873,0-9.507-1.039-13.701-2.898 c8.596-23.44,32.542-64.995,94.169-64.995h65.787c-6.52,3.974-10.897,11.129-10.897,19.307c0,12.47,10.144,22.614,22.614,22.614 h45.872c-3.597,14.882-17.02,25.972-32.993,25.972H258.131z M420.679,442.764c0,4.638-3.773,8.412-8.411,8.412 c-4.638,0-8.412-3.773-8.412-8.412c0-4.638,3.773-8.412,8.412-8.412C416.906,434.351,420.679,438.125,420.679,442.764z M389.482,451.175h-64.6c0.971-2.623,1.503-5.455,1.503-8.412c0-2.956-0.532-5.79-1.503-8.412h64.6 c-0.971,2.623-1.503,5.455-1.503,8.412C387.979,445.72,388.511,448.552,389.482,451.175z M310.507,442.764 c0,4.638-3.772,8.412-8.411,8.412s-8.412-3.773-8.412-8.412c0-4.638,3.773-8.412,8.412-8.412 C306.734,434.352,310.507,438.125,310.507,442.764z M180.735,196.558h-10.902v-24.95h14.079L180.735,196.558z M230.287,36.971 c18.754,0,36.717,6.941,50.58,19.544c2.276,2.067,5.54,2.636,8.381,1.459c7.132-2.957,14.688-4.457,22.46-4.457 c29.455,0,54.232,21.721,58.144,50.739H189.626l0.525-5.208c0.503-4.989-1.089-9.931-4.369-13.558s-8.037-5.708-13.052-5.708 h-10.355C174.687,53.791,200.766,36.971,230.287,36.971z M137.98,99.627v-3.969h34.75c0.55,0,0.993,0.165,1.275,0.479 c0.284,0.313,0.404,0.768,0.349,1.317l-0.382,3.798H137.92C137.956,100.714,137.98,100.175,137.98,99.627z M104.208,87.719 c0-4.934,4.014-8.947,8.947-8.947c4.934,0,8.947,4.014,8.947,8.947v11.908c0,4.934-4.014,8.947-8.947,8.947 c-4.934,0-8.947-4.014-8.947-8.947V87.719z M95.569,117.129c4.499,4.521,10.721,7.323,17.587,7.323 c6.865,0,13.088-2.802,17.587-7.323h41.63l-0.77,7.633H54.708l-0.77-7.633H95.569z M52.306,96.138 c0.284-0.314,0.725-0.479,1.275-0.479h34.75v3.969c0,0.547,0.023,1.087,0.059,1.625H52.338l-0.382-3.798 C51.901,96.907,52.022,96.451,52.306,96.138z M38.656,142.197c-0.044-0.352-0.038-0.84,0.248-1.165 c0.286-0.325,0.769-0.393,1.125-0.393h146.255c0.356,0,0.839,0.068,1.126,0.393c0.286,0.325,0.292,0.814,0.248,1.166 l-1.723,13.533H40.378L38.656,142.197z M153.955,171.608v24.95h-32.861v-24.95H153.955z M105.217,171.608v24.95H72.355v-24.95 H105.217z M42.4,171.608h14.079v24.95H45.577L42.4,171.608z M53.113,227.527c-1.813,0-3.817-1.766-4.047-3.564l-1.468-11.528 h131.114l-1.468,11.527c-0.23,1.799-2.234,3.565-4.048,3.565H53.113z M75.71,360.905v-55.014h74.887v55.014H75.71z M150.597,376.783v74.393H75.709v-74.393H150.597z M75.71,290.014v-46.61h74.887v46.61H75.71z M188.928,475.03H15.877v-7.978 h173.051V475.03z M496.123,475.03H204.805v-7.978h291.318V475.03z"/> </g> </g> </g> </g>
</svg>